With: Harry Dean Stanton, Nastassja Kinski and Dean Stockwell

De film vertelt het verhaal van Travis (Harry Dean Stanton). Travis wordt gevonden in de woestijn en door zijn broer Walt (Dean Stockwell) meegenomen naar huis. Daar aangekomen vindt een ontroerende ontmoeting plaats tussen Travis en zijn inmiddels 7 jaar oude zoontje Hunter. Als blijkt dat ook Hunters moeder (Nastassja Kinski) nog in leven is gaan Hunter en Travis samen naar haar op zoek.

A man wanders out of the desert not knowing who he is. His brother finds him, and helps to pull his memory back of the life he led before he walked out on his wife and son four years before...
 
http://www.imdb.com/title/tt0087884	

------------------------ Dutch Friends ------------------------
---------------------------------------------------------------
- Bezoek ook eens mijn vrienden op:  http://www.Film-Test.nl --
----- voor mijn Nederlandse Sync. ondertitels ---- en meer ----
------- http://www.Film-Test.nl ---- Over Films en meer -------
---------------------------------------------------------------

General:

Complete name                    : Paris, TexasParis, Texas.avi
Format                           : AVI
Format/Info                      : Audio Video Interleave
File size                        : 2.22 GiB
Duration                         : 2h 24mn
Overall bit rate                 : 2 198 Kbps

Video:

Format                           : MPEG-4 Visual
Format profile                   : Simple@L3
Format settings, BVOP            : No
Format settings, QPel            : No
Format settings, GMC             : No warppoints
Format settings, Matrix          : Default (H.263)
Codec ID                         : XVID
Codec ID/Hint                    : XviD
Duration                         : 2h 24mn
Bit rate                         : 1 739 Kbps
Width                            : 704 pixels
Height                           : 396 pixels
Display aspect ratio             : 16:9
Frame rate                       : 23.976 fps
Color space                      : YUV
Chroma subsampling               : 4:2:0
Bit depth                        : 8 bits
Scan type                        : Progressive
Compression mode                 : Lossy
Bits/(Pixel*Frame)               : 0.260
Stream size                      : 1.76 GiB (79%)
Writing library                  : XviD 1.1.2 (UTC 2006-11-01)

Audio:

Format                           : AC-3
Format/Info                      : Audio Coding 3
Mode extension                   : CM (complete main)
Codec ID                         : 2000
Duration                         : 2h 24mn
Bit rate mode                    : Constant
Bit rate                         : 448 Kbps
Channel(s)                       : 6 channels
Channel positions                : Front: L C R, Side: L R, LFE
Sampling rate                    : 48.0 KHz
Bit depth                        : 16 bits
Compression mode                 : Lossy
Stream size                      : 464 MiB (20%)
Alignment                        : Aligned on interleaves
Interleave, duration             : 32 ms (0.77 video frame)
Interleave, preload duration     : 320 ms